# xmcd CD database file
#
# Track frame offsets:
#	187
#	13750
#	28555
#	42565
#	54552
#	68560
#	82752
#	96670
#	108100
#	120757
#	136765
#	150940
#	163602
#	175950
#	189960
#	202797
#	216037
#	228972
#	240827
#	254115
#	266260
#	276445
#
# Disc length: 3960 seconds
#
# Revision: 0
# Processed by: cddbd v1.5.1PL0 Copyright (c) Steve Scherf et al.
# Submitted via: CDex 1.50
#
DISCID=160f7616
DTITLE=Fats Waller - Fats Waller Disk One
DYEAR=1900
DGENRE=Jazz
TTITLE0=Ain't Misbehavin'
TTITLE1=VALENTINE STOMP
TTITLE2=SMASHING THIRDS
TTITLE3=SERENADE FOR A WEALTHY WINDOW
TTITLE4=SWEETIE PIE
TTITLE5=AFRICAN RIPPLES
TTITLE6=I'M A HUNDRED PER CENT FOR YOU
TTITLE7=BABY BROWN(Vocal)
TTITLE8=ROSETTA
TTITLE9=I'M GONNA SIT RIGHT DOWN AND WRITE MYSELF A LETTER
TTITLE10=DINAH
TTITLE11=12TH STREET RAG
TTITLE12=SPREADIN' RHYTHM AROUND
TTITLE13=FUNCTIONZIN
TTITLE14=CHRISTOPHER COLUMBUS(A RHYTHM COCKTAIL)
TTITLE15=IT'S A SIN TO TELL A LIE
TTITLE16=BIG CHIEF DE SOTA
TTITLE17=BLACK RASPBERRY JAM
TTITLE18=SWINGIN' THEM JINGLE BELLS
TTITLE19=A RHYME FOR LOVE
TTITLE20=THE LOVE BUG WILL BITE YOU (IF YOU DON'T WATCH OUT)
TTITLE21=HONEYSUCKLE ROSE
EXTD=
EXTT0=
EXTT1=
EXTT2=
EXTT3=
EXTT4=
EXTT5=
EXTT6=
EXTT7=
EXTT8=
EXTT9=
EXTT10=
EXTT11=
EXTT12=
EXTT13=
EXTT14=
EXTT15=
EXTT16=
EXTT17=
EXTT18=
EXTT19=
EXTT20=
EXTT21=
PLAYORDER=
